<?xml version="1.0" standalone="no"?>
<!DOCTYPE svg PUBLIC "-//W3C//DTD SVG 20010904//EN"
 "http://www.w3.org/TR/2001/REC-SVG-20010904/DTD/svg10.dtd">
<svg version="1.0" xmlns="http://www.w3.org/2000/svg"
 width="515.000000pt" height="515.000000pt" viewBox="0 0 515.000000 515.000000"
 preserveAspectRatio="xMidYMid meet">
<metadata>
Created by potrace 1.11, written by Peter Selinger 2001-2013
</metadata>
<g transform="translate(0.000000,515.000000) scale(0.100000,-0.100000)"
fill="#000000" stroke="none">
<path d="M2524 4876 c-39 -17 -72 -59 -80 -102 -3 -19 -9 -34 -13 -34 -26 -2
-147 -20 -243 -36 -330 -55 -705 -233 -988 -468 -131 -110 -314 -308 -388
-423 -15 -24 -31 -43 -37 -43 -5 0 -32 11 -59 25 -91 46 -173 24 -214 -56 -40
-78 -13 -151 73 -200 30 -17 55 -33 55 -34 0 -2 -15 -39 -34 -82 -74 -168
-141 -419 -163 -608 -15 -129 -8 -460 11 -575 34 -200 77 -348 154 -534 29
-70 42 -111 34 -114 -28 -9 -79 -50 -99 -81 -40 -59 -22 -149 37 -191 47 -34
107 -36 163 -6 26 14 52 26 57 26 5 0 24 -21 41 -47 18 -27 35 -50 38 -53 3
-3 24 -27 46 -55 62 -78 222 -236 310 -307 219 -175 456 -303 717 -387 130
-41 407 -96 471 -93 14 1 17 -8 17 -41 0 -109 113 -179 209 -129 47 23 71 59
79 117 l7 48 45 4 c349 25 734 160 1039 365 169 114 377 305 486 448 27 36 53
70 57 75 5 6 16 21 26 34 16 20 22 22 40 12 49 -26 136 -2 172 49 43 61 32
154 -25 198 l-22 18 34 74 c69 148 138 377 163 535 21 134 25 191 25 375 -1
181 -6 249 -26 353 -5 29 -12 66 -15 82 -9 51 -32 136 -64 235 -36 110 -50
143 -108 264 l-43 89 21 41 c11 23 20 54 20 69 0 89 -88 161 -175 144 -22 -4
-33 6 -77 62 -79 103 -282 300 -394 383 -250 185 -531 318 -811 383 -90 21
-115 25 -228 39 -33 5 -69 9 -80 11 -11 2 -28 4 -37 4 -12 1 -18 9 -18 24 0
32 -35 84 -72 107 -38 23 -89 25 -134 6z m-88 -951 c-2 -6 -17 -12 -34 -13
-66 -5 -266 -62 -358 -103 -180 -79 -389 -239 -510 -391 l-29 -37 -232 122
c-246 129 -240 124 -202 171 138 172 198 236 304 326 275 232 618 386 970 433
l90 13 3 -255 c1 -141 1 -260 -2 -266z m384 511 c115 -11 354 -69 435 -106 11
-5 45 -19 75 -31 256 -105 522 -303 714 -533 l58 -69 -112 -71 c-61 -39 -161
-103 -221 -142 l-110 -71 -67 70 c-221 229 -454 349 -834 431 l-28 6 0 259 c0
142 3 260 6 264 3 3 11 4 17 2 7 -2 37 -6 67 -9z m-120 -810 c356 -35 642
-230 818 -556 40 -76 96 -226 107 -290 3 -19 10 -53 15 -75 18 -74 4 -290 -24
-400 -104 -402 -440 -710 -850 -780 -448 -76 -898 146 -1111 548 -88 166 -124
313 -123 507 1 155 30 287 94 430 25 56 43 87 106 184 7 11 29 38 48 60 132
154 304 269 495 329 95 30 131 36 250 44 50 3 92 7 94 9 2 2 7 2 10 0 3 -2 35
-7 71 -10z m1629 -328 c72 -172 123 -368 138 -538 9 -101 9 -298 0 -390 -11
-110 -51 -296 -88 -402 -39 -114 -89 -228 -100 -228 -5 0 -52 24 -106 53 -54
30 -152 82 -218 117 -66 35 -125 67 -131 72 -9 6 -4 28 17 77 32 77 76 232 85
301 3 25 7 56 10 70 6 35 5 255 -1 310 -14 116 -57 278 -99 374 l-23 52 221
140 221 141 17 -28 c10 -16 35 -70 57 -121z m-3312 10 c51 -26 116 -61 145
-76 29 -16 85 -46 125 -66 l71 -37 -25 -57 c-75 -170 -110 -423 -89 -642 10
-98 50 -263 85 -350 l29 -69 -37 -22 c-20 -12 -56 -33 -81 -47 -25 -14 -58
-34 -75 -44 -16 -10 -37 -21 -45 -25 -8 -4 -47 -26 -86 -49 -40 -23 -86 -50
-103 -59 l-32 -16 -21 48 c-11 26 -28 66 -38 88 -77 177 -130 479 -125 720 4
155 10 213 39 360 19 95 69 249 113 347 20 43 29 55 42 49 9 -3 57 -28 108
-53z m567 -1641 c191 -220 501 -391 786 -432 24 -4 48 -9 52 -11 5 -3 8 -124
8 -270 l0 -265 -52 6 c-326 35 -692 188 -953 398 -130 105 -296 279 -359 378
l-16 25 228 130 c158 91 230 127 237 120 6 -6 37 -42 69 -79z m2256 -27 c47
-26 130 -71 185 -100 55 -29 102 -54 104 -56 8 -7 -116 -158 -196 -239 -173
-175 -349 -296 -583 -403 -64 -30 -206 -80 -243 -88 -11 -2 -34 -8 -51 -13
-62 -19 -159 -36 -269 -47 l-67 -6 2 268 3 268 35 3 c57 6 180 34 259 60 195
63 372 174 528 330 57 56 103 107 103 113 0 11 52 -14 190 -90z"/>
<path d="M1714 4181 c-199 -91 -155 -388 61 -408 132 -13 237 82 237 213 0
150 -163 256 -298 195z"/>
<path d="M3270 4207 c-73 -23 -140 -120 -140 -202 0 -88 71 -184 152 -205 180
-49 332 122 259 293 -43 99 -160 149 -271 114z"/>
<path d="M2470 3384 c-273 -43 -499 -211 -616 -459 -55 -115 -77 -214 -78
-340 0 -115 7 -164 35 -254 122 -385 504 -624 904 -565 147 22 276 79 395 175
62 50 152 149 176 194 6 11 21 38 33 59 86 150 116 374 77 571 -29 145 -115
302 -220 398 -185 169 -472 259 -706 221z m244 -300 c184 -47 325 -169 380
-329 23 -67 32 -215 17 -288 -39 -185 -200 -354 -382 -400 -75 -20 -193 -20
-264 -2 -197 51 -350 213 -391 415 -53 257 124 533 388 604 71 20 176 19 252
0z"/>
<path d="M4195 2830 c-143 -32 -214 -177 -150 -307 81 -162 310 -155 386 12
69 151 -74 331 -236 295z"/>
<path d="M933 2703 c-113 -39 -173 -176 -125 -286 24 -54 94 -113 149 -125 76
-17 156 10 210 72 41 46 57 97 50 162 -14 135 -153 222 -284 177z"/>
<path d="M1714 1374 c-109 -38 -169 -187 -116 -290 60 -117 194 -156 306 -90
118 69 137 241 38 333 -65 61 -142 76 -228 47z"/>
<path d="M3346 1389 c-74 -21 -140 -97 -152 -176 -30 -204 225 -327 368 -176
73 77 77 204 8 286 -46 56 -150 87 -224 66z"/>
</g>
</svg>
